<?xml version="1.0" standalone="no"?>
<!DOCTYPE svg PUBLIC "-//W3C//DTD SVG 20010904//EN"
 "http://www.w3.org/TR/2001/REC-SVG-20010904/DTD/svg10.dtd">
<svg version="1.0" xmlns="http://www.w3.org/2000/svg"
 width="500.000000pt" height="500.000000pt" viewBox="0 0 500.000000 500.000000"
 preserveAspectRatio="xMidYMid meet">
<metadata>
Created by potrace 1.14, written by Peter Selinger 2001-2017
</metadata>
<g transform="translate(0.000000,500.000000) scale(0.100000,-0.100000)"
fill="#000000" stroke="none">
<path d="M2572 4364 l3 -228 85 -17 c283 -56 513 -250 608 -512 39 -108 52
-180 52 -291 -1 -219 -81 -415 -235 -571 -45 -46 -111 -99 -151 -123 -78 -47
-205 -96 -274 -107 -55 -8 -83 -16 -78 -21 3 -2 47 3 99 11 355 57 623 256
771 572 110 234 128 537 48 787 -126 393 -462 669 -878 721 l-52 7 2 -228z"/>
<path d="M2271 4119 c-387 -81 -664 -344 -769 -728 -24 -87 -26 -113 -27 -286
0 -170 2 -199 24 -275 110 -395 424 -692 809 -766 41 -8 85 -14 98 -14 l24 0
0 224 c0 252 8 228 -80 241 -59 9 -190 57 -249 91 -222 128 -366 351 -401 622
-19 151 10 310 83 457 119 240 310 379 607 443 43 9 44 10 10 10 -19 0 -77 -8
-129 -19z"/>
<path d="M2120 3666 c0 -20 6 -27 28 -32 56 -12 71 -23 77 -56 3 -18 5 -149 3
-291 -3 -243 -4 -260 -22 -273 -11 -8 -35 -14 -53 -14 -30 0 -33 -3 -33 -31
l0 -32 228 6 c297 7 379 29 462 124 169 192 85 509 -156 593 -63 22 -88 24
-301 28 l-233 4 0 -26z m460 -67 c90 -49 140 -152 140 -285 0 -139 -63 -268
-143 -293 -100 -31 -177 -17 -188 34 -4 17 -7 153 -8 304 l-1 274 78 -5 c58
-3 90 -11 122 -29z"/>
<path d="M3570 1831 c-79 -26 -137 -79 -164 -152 -17 -48 -56 -333 -56 -417 0
-127 91 -202 231 -189 70 6 127 35 171 87 45 52 55 89 79 278 32 261 25 308
-58 366 -34 23 -54 29 -110 32 -37 2 -79 0 -93 -5z m82 -188 c5 -22 -36 -365
-46 -381 -4 -7 -18 -12 -32 -12 -21 0 -24 4 -24 38 0 48 38 351 45 363 11 16
52 10 57 -8z"/>
<path d="M555 1798 c-7 -46 -85 -686 -85 -704 0 -14 21 -15 153 -12 167 4 202
14 258 75 49 52 59 88 86 299 29 233 26 265 -32 319 -46 44 -94 55 -243 55
l-131 0 -6 -32z m219 -154 c9 -8 16 -18 16 -22 -1 -45 -42 -328 -50 -342 -13
-24 -50 -27 -50 -4 0 23 41 357 45 372 6 16 20 15 39 -4z"/>
<path d="M1088 1478 c-64 -194 -119 -363 -123 -376 -7 -23 -7 -23 91 -20 l98
3 14 48 13 47 50 0 49 0 0 -34 c0 -64 3 -66 105 -66 52 0 96 3 98 8 4 8 -50
685 -58 720 -5 21 -10 22 -113 22 l-108 0 -116 -352z m191 -80 c1 -57 1 -58
-28 -58 l-28 0 21 87 c18 74 22 82 27 57 4 -16 7 -55 8 -86z"/>
<path d="M1615 1818 c-5 -18 -85 -688 -85 -715 0 -22 3 -23 94 -23 109 0 98
-16 117 157 7 62 15 111 17 108 3 -2 12 -62 21 -132 l17 -128 97 -3 97 -3 0
26 c0 15 -9 88 -21 162 l-20 136 29 31 c16 17 38 47 47 66 20 39 31 141 21
194 -8 44 -59 104 -103 122 -44 19 -322 20 -328 2z m216 -168 c14 -8 19 -21
19 -48 0 -43 -15 -67 -47 -77 -26 -7 -28 5 -17 89 7 48 13 53 45 36z"/>
<path d="M2125 1818 c-5 -18 -85 -688 -85 -715 0 -22 3 -23 94 -23 l94 0 6 28
c3 15 8 52 11 82 9 79 16 110 24 110 4 0 20 -49 36 -110 l28 -110 98 0 c54 0
100 3 102 8 2 4 -20 96 -49 205 l-53 198 95 162 c52 89 94 165 94 169 0 5 -45
8 -100 8 l-100 0 -29 -57 c-16 -32 -44 -83 -61 -113 l-32 -55 6 55 c3 30 8 81
12 113 l7 57 -97 0 c-68 0 -98 -4 -101 -12z"/>
<path d="M2875 1818 c-8 -22 -92 -723 -88 -730 6 -11 181 -10 187 0 3 5 13 77
23 162 19 173 24 171 48 -24 9 -71 18 -133 21 -138 5 -8 214 -12 214 -3 0 3
20 170 45 371 25 201 45 367 45 370 0 3 -44 3 -97 2 l-98 -3 -19 -159 c-12
-101 -22 -153 -27 -140 -4 10 -15 79 -24 153 -9 74 -18 138 -21 143 -9 14
-204 10 -209 -4z"/>
<path d="M3916 1813 c-2 -10 -8 -48 -12 -85 l-6 -68 66 0 66 0 0 -37 c0 -21
-14 -146 -30 -278 -16 -132 -30 -246 -30 -253 0 -10 23 -12 97 -10 l98 3 35
285 35 285 72 3 71 3 6 37 c3 20 8 58 12 85 l6 47 -240 0 c-221 0 -241 -1
-246 -17z"/>
<path d="M4445 1818 c-5 -18 -85 -688 -85 -715 l0 -23 204 0 c233 0 210 -11
222 102 l6 67 -108 3 -109 3 3 40 c6 73 7 75 72 75 67 0 65 -3 76 103 l6 67
-61 0 c-67 0 -65 -3 -55 74 l7 46 108 0 c59 0 110 3 112 8 3 4 8 42 12 85 l7
77 -206 0 c-157 0 -208 -3 -211 -12z"/>
</g>
</svg>
