<svg aria-hidden="true" style="position:absolute;width:0;height:0;overflow:hidden" xmlns="http://www.w3.org/2000/svg"><defs><symbol id="icon-camera" viewBox="0 0 20 20"><path d="M0 6c0-1.1.9-2 2-2h3l2-2h6l2 2h3a2 2 0 0 1 2 2v10a2 2 0 0 1-2 2H2a2 2 0 0 1-2-2V6zm10 10a5 5 0 0 0 0-10 5 5 0 0 0 0 10zm0-2a3 3 0 1 1 0-6 3 3 0 1 1 0 6z"/></symbol><symbol id="icon-flag" viewBox="0 0 20 20"><path d="M7.667 12H2v8H0V0h12l.333 2H20l-3 6 3 6H8l-.333-2z"/></symbol><symbol id="icon-headphones" viewBox="0 0 20 20"><path d="M16 8A6 6 0 1 0 4 8v11H2a2 2 0 0 1-2-2v-4a2 2 0 0 1 2-2V8a8 8 0 0 1 16 0v3a2 2 0 0 1 2 2v4a2 2 0 0 1-2 2h-2V8zm-4 2h3v10h-3V10zm-7 0h3v10H5V10z"/></symbol><symbol id="icon-travel" viewBox="0 0 20 20"><path d="M14 5h2v14H4V5h2V4a2 2 0 0 1 2-2h4a2 2 0 0 1 2 2v1zm3 0h1a2 2 0 0 1 2 2v10a2 2 0 0 1-2 2h-1V5zM3 5v14H2a2 2 0 0 1-2-2V7c0-1.1.9-2 2-2h1zm5-1v1h4V4H8z"/></symbol><symbol id="icon-travel-train" viewBox="0 0 20 20"><path d="M12 18H8l-2 2H3l2-2a2 2 0 0 1-2-2V2c0-1.1.9-2 2-2h10a2 2 0 0 1 2 2v14a2 2 0 0 1-2 2l2 2h-3l-2-2zM5 5v6h10V5H5zm1.5 11a1.5 1.5 0 0 0 0-3 1.5 1.5 0 0 0 0 3zm7 0a1.5 1.5 0 0 0 0-3 1.5 1.5 0 0 0 0 3zM8 2v1h4V2H8z"/></symbol><symbol id="icon-yin-yang" viewBox="0 0 20 20"><path d="M10 20C4.477 20 0 15.523 0 10S4.477 0 10 0s10 4.477 10 10-4.477 10-10 10zm0-18a8 8 0 0 0 0 16 4 4 0 0 1 0-8 4 4 0 0 0 0-8zm0 13a1 1 0 0 0 0-2 1 1 0 0 0 0 2zm0-8a1 1 0 0 1 0-2 1 1 0 0 1 0 2z"/></symbol></defs></svg>