<svg aria-hidden="true" style="position: absolute; width: 0; height: 0; overflow: hidden;" version="1.1" xmlns="http://www.w3.org/2000/svg" xmlns:xlink="http://www.w3.org/1999/xlink">
<defs>
<symbol id="icon-camera" viewBox="0 0 20 20">
<path d="M0 6c0-1.1 0.9-2 2-2h3l2-2h6l2 2h3c1.105 0 2 0.895 2 2v0 10c0 1.105-0.895 2-2 2v0h-16c-1.105 0-2-0.895-2-2v0-10zM10 16c2.761 0 5-2.239 5-5s-2.239-5-5-5v0c-2.761 0-5 2.239-5 5s2.239 5 5 5v0zM10 14c-1.657 0-3-1.343-3-3s1.343-3 3-3v0c1.657 0 3 1.343 3 3s-1.343 3-3 3v0z"></path>
</symbol>
<symbol id="icon-flag" viewBox="0 0 20 20">
<path d="M7.667 12h-5.667v8h-2v-20h12l0.333 2h7.667l-3 6 3 6h-12l-0.333-2z"></path>
</symbol>
<symbol id="icon-headphones" viewBox="0 0 20 20">
<path d="M16 8c0-3.314-2.686-6-6-6s-6 2.686-6 6v0 11h-2c-1.105 0-2-0.895-2-2v0-4c0-1.105 0.895-2 2-2v0-3c0-4.418 3.582-8 8-8s8 3.582 8 8v0 3c1.105 0 2 0.895 2 2v0 4c0 1.105-0.895 2-2 2v0h-2v-11zM12 10h3v10h-3v-10zM5 10h3v10h-3v-10z"></path>
</symbol>
<symbol id="icon-travel" viewBox="0 0 20 20">
<path d="M14 5h2v14h-12v-14h2v-1c0-1.105 0.895-2 2-2v0h4c1.105 0 2 0.895 2 2v0 1zM17 5h1c1.105 0 2 0.895 2 2v0 10c0 1.105-0.895 2-2 2v0h-1v-14zM3 5v14h-1c-1.105 0-2-0.895-2-2v0-10c0-1.1 0.9-2 2-2h1zM8 4v1h4v-1h-4z"></path>
</symbol>
<symbol id="icon-travel-train" viewBox="0 0 20 20">
<path d="M12 18h-4l-2 2h-3l2-2c-1.105 0-2-0.895-2-2v0-14c0-1.1 0.9-2 2-2h10c1.105 0 2 0.895 2 2v0 14c0 1.105-0.895 2-2 2v0l2 2h-3l-2-2zM5 5v6h10v-6h-10zM6.5 16c0.828 0 1.5-0.672 1.5-1.5s-0.672-1.5-1.5-1.5v0c-0.828 0-1.5 0.672-1.5 1.5s0.672 1.5 1.5 1.5v0zM13.5 16c0.828 0 1.5-0.672 1.5-1.5s-0.672-1.5-1.5-1.5v0c-0.828 0-1.5 0.672-1.5 1.5s0.672 1.5 1.5 1.5v0zM8 2v1h4v-1h-4z"></path>
</symbol>
<symbol id="icon-yin-yang" viewBox="0 0 20 20">
<path d="M10 20c-5.523 0-10-4.477-10-10s4.477-10 10-10v0c5.523 0 10 4.477 10 10s-4.477 10-10 10v0zM10 2c-4.418 0-8 3.582-8 8s3.582 8 8 8v0c-2.209 0-4-1.791-4-4s1.791-4 4-4v0c2.209 0 4-1.791 4-4s-1.791-4-4-4v0zM10 15c0.552 0 1-0.448 1-1s-0.448-1-1-1v0c-0.552 0-1 0.448-1 1s0.448 1 1 1v0zM10 7c-0.552 0-1-0.448-1-1s0.448-1 1-1v0c0.552 0 1 0.448 1 1s-0.448 1-1 1v0z"></path>
</symbol>
</defs>
</svg>
